<svg width="285" height="49" viewBox="0 0 285 49" fill="none" xmlns="http://www.w3.org/2000/svg">
<path d="M7.07812 3.875V38H0.046875V3.875H7.07812ZM27.5156 3.875L13.9922 20.7266L6.1875 29.1172L4.92188 22.4609L10.1953 15.2422L18.8906 3.875H27.5156ZM19.5234 38L9.46875 22.2266L14.6719 17.8672L27.8438 38H19.5234ZM45.0581 31.9297V12.6406H51.8081V38H45.4566L45.0581 31.9297ZM45.8081 26.7266L47.8003 26.6797C47.8003 28.3672 47.605 29.9375 47.2144 31.3906C46.8237 32.8281 46.2378 34.0781 45.4566 35.1406C44.6753 36.1875 43.6909 37.0078 42.5034 37.6016C41.3159 38.1797 39.9175 38.4688 38.3081 38.4688C37.0737 38.4688 35.9331 38.2969 34.8862 37.9531C33.855 37.5938 32.9644 37.0391 32.2144 36.2891C31.48 35.5234 30.9019 34.5469 30.48 33.3594C30.0737 32.1562 29.8706 30.7109 29.8706 29.0234V12.6406H36.6206V29.0703C36.6206 29.8203 36.7066 30.4531 36.8784 30.9688C37.0659 31.4844 37.3237 31.9062 37.6519 32.2344C37.98 32.5625 38.3628 32.7969 38.8003 32.9375C39.2534 33.0781 39.7534 33.1484 40.3003 33.1484C41.6909 33.1484 42.7847 32.8672 43.5816 32.3047C44.3941 31.7422 44.9644 30.9766 45.2925 30.0078C45.6362 29.0234 45.8081 27.9297 45.8081 26.7266ZM64.1944 18.1719V38H57.4444V12.6406H63.7959L64.1944 18.1719ZM71.835 12.4766L71.7178 18.7344C71.3897 18.6875 70.9912 18.6484 70.5225 18.6172C70.0694 18.5703 69.6553 18.5469 69.2803 18.5469C68.3272 18.5469 67.4991 18.6719 66.7959 18.9219C66.1084 19.1562 65.5303 19.5078 65.0616 19.9766C64.6084 20.4453 64.2647 21.0156 64.0303 21.6875C63.8116 22.3594 63.6866 23.125 63.6553 23.9844L62.2959 23.5625C62.2959 21.9219 62.46 20.4141 62.7881 19.0391C63.1162 17.6484 63.5928 16.4375 64.2178 15.4062C64.8584 14.375 65.6397 13.5781 66.5616 13.0156C67.4834 12.4531 68.5381 12.1719 69.7256 12.1719C70.1006 12.1719 70.4834 12.2031 70.8741 12.2656C71.2647 12.3125 71.585 12.3828 71.835 12.4766ZM88.3931 32.2812V20.9844C88.3931 20.1719 88.2603 19.4766 87.9947 18.8984C87.7291 18.3047 87.315 17.8438 86.7525 17.5156C86.2056 17.1875 85.4947 17.0234 84.6197 17.0234C83.8697 17.0234 83.2213 17.1562 82.6744 17.4219C82.1275 17.6719 81.7056 18.0391 81.4088 18.5234C81.1119 18.9922 80.9634 19.5469 80.9634 20.1875H74.2134C74.2134 19.1094 74.4634 18.0859 74.9634 17.1172C75.4634 16.1484 76.19 15.2969 77.1431 14.5625C78.0963 13.8125 79.2291 13.2266 80.5416 12.8047C81.8697 12.3828 83.3541 12.1719 84.9947 12.1719C86.9634 12.1719 88.7134 12.5 90.2447 13.1562C91.7759 13.8125 92.9791 14.7969 93.8541 16.1094C94.7447 17.4219 95.19 19.0625 95.19 21.0312V31.8828C95.19 33.2734 95.2759 34.4141 95.4478 35.3047C95.6197 36.1797 95.8697 36.9453 96.1978 37.6016V38H89.3775C89.0494 37.3125 88.7994 36.4531 88.6275 35.4219C88.4713 34.375 88.3931 33.3281 88.3931 32.2812ZM89.2838 22.5547L89.3306 26.375H85.5572C84.6666 26.375 83.8931 26.4766 83.2369 26.6797C82.5806 26.8828 82.0416 27.1719 81.6197 27.5469C81.1978 27.9062 80.8853 28.3281 80.6822 28.8125C80.4947 29.2969 80.4009 29.8281 80.4009 30.4062C80.4009 30.9844 80.5338 31.5078 80.7994 31.9766C81.065 32.4297 81.4478 32.7891 81.9478 33.0547C82.4478 33.3047 83.0338 33.4297 83.7056 33.4297C84.7213 33.4297 85.6041 33.2266 86.3541 32.8203C87.1041 32.4141 87.6822 31.9141 88.0884 31.3203C88.5103 30.7266 88.7291 30.1641 88.7447 29.6328L90.5259 32.4922C90.2759 33.1328 89.9322 33.7969 89.4947 34.4844C89.0728 35.1719 88.5338 35.8203 87.8775 36.4297C87.2213 37.0234 86.4322 37.5156 85.5103 37.9062C84.5884 38.2812 83.4947 38.4688 82.2291 38.4688C80.6197 38.4688 79.1588 38.1484 77.8463 37.5078C76.5494 36.8516 75.5181 35.9531 74.7525 34.8125C74.0025 33.6562 73.6275 32.3438 73.6275 30.875C73.6275 29.5469 73.8775 28.3672 74.3775 27.3359C74.8775 26.3047 75.6119 25.4375 76.5806 24.7344C77.565 24.0156 78.7916 23.4766 80.2603 23.1172C81.7291 22.7422 83.4322 22.5547 85.3697 22.5547H89.2838ZM111.35 33.1953C112.178 33.1953 112.912 33.0391 113.553 32.7266C114.193 32.3984 114.693 31.9453 115.053 31.3672C115.428 30.7734 115.623 30.0781 115.639 29.2812H121.99C121.975 31.0625 121.498 32.6484 120.561 34.0391C119.623 35.4141 118.365 36.5 116.787 37.2969C115.209 38.0781 113.443 38.4688 111.49 38.4688C109.522 38.4688 107.803 38.1406 106.334 37.4844C104.881 36.8281 103.67 35.9219 102.701 34.7656C101.732 33.5938 101.006 32.2344 100.522 30.6875C100.037 29.125 99.795 27.4531 99.795 25.6719V24.9922C99.795 23.1953 100.037 21.5234 100.522 19.9766C101.006 18.4141 101.732 17.0547 102.701 15.8984C103.67 14.7266 104.881 13.8125 106.334 13.1562C107.787 12.5 109.49 12.1719 111.443 12.1719C113.522 12.1719 115.342 12.5703 116.904 13.3672C118.482 14.1641 119.717 15.3047 120.607 16.7891C121.514 18.2578 121.975 20 121.99 22.0156H115.639C115.623 21.1719 115.443 20.4062 115.1 19.7188C114.772 19.0312 114.287 18.4844 113.647 18.0781C113.022 17.6562 112.248 17.4453 111.326 17.4453C110.342 17.4453 109.537 17.6562 108.912 18.0781C108.287 18.4844 107.803 19.0469 107.459 19.7656C107.115 20.4688 106.873 21.2734 106.732 22.1797C106.607 23.0703 106.545 24.0078 106.545 24.9922V25.6719C106.545 26.6562 106.607 27.6016 106.732 28.5078C106.857 29.4141 107.092 30.2188 107.436 30.9219C107.795 31.625 108.287 32.1797 108.912 32.5859C109.537 32.9922 110.35 33.1953 111.35 33.1953ZM126.759 12.6406H133.533V39.5234C133.533 41.3984 133.189 42.9844 132.502 44.2812C131.814 45.5781 130.822 46.5625 129.525 47.2344C128.228 47.9062 126.658 48.2422 124.814 48.2422C124.236 48.2422 123.673 48.2109 123.127 48.1484C122.564 48.0859 121.986 47.9844 121.392 47.8438L121.416 42.6641C121.791 42.7266 122.158 42.7734 122.517 42.8047C122.861 42.8516 123.213 42.875 123.572 42.875C124.275 42.875 124.861 42.7578 125.33 42.5234C125.798 42.2891 126.15 41.9219 126.384 41.4219C126.634 40.9375 126.759 40.3047 126.759 39.5234V12.6406ZM126.22 6.03125C126.22 5.04688 126.564 4.23438 127.252 3.59375C127.955 2.95312 128.877 2.63281 130.017 2.63281C131.173 2.63281 132.095 2.95312 132.783 3.59375C133.47 4.23438 133.814 5.04688 133.814 6.03125C133.814 7.01562 133.47 7.82812 132.783 8.46875C132.095 9.10938 131.173 9.42969 130.017 9.42969C128.877 9.42969 127.955 9.10938 127.252 8.46875C126.564 7.82812 126.22 7.01562 126.22 6.03125ZM154.38 31.9297V12.6406H161.13V38H154.778L154.38 31.9297ZM155.13 26.7266L157.122 26.6797C157.122 28.3672 156.927 29.9375 156.536 31.3906C156.146 32.8281 155.56 34.0781 154.778 35.1406C153.997 36.1875 153.013 37.0078 151.825 37.6016C150.638 38.1797 149.239 38.4688 147.63 38.4688C146.396 38.4688 145.255 38.2969 144.208 37.9531C143.177 37.5938 142.286 37.0391 141.536 36.2891C140.802 35.5234 140.224 34.5469 139.802 33.3594C139.396 32.1562 139.193 30.7109 139.193 29.0234V12.6406H145.943V29.0703C145.943 29.8203 146.028 30.4531 146.2 30.9688C146.388 31.4844 146.646 31.9062 146.974 32.2344C147.302 32.5625 147.685 32.7969 148.122 32.9375C148.575 33.0781 149.075 33.1484 149.622 33.1484C151.013 33.1484 152.107 32.8672 152.903 32.3047C153.716 31.7422 154.286 30.9766 154.614 30.0078C154.958 29.0234 155.13 27.9297 155.13 26.7266ZM180.477 30.9922C180.477 30.5078 180.337 30.0703 180.055 29.6797C179.774 29.2891 179.251 28.9297 178.485 28.6016C177.735 28.2578 176.649 27.9453 175.227 27.6641C173.946 27.3828 172.751 27.0312 171.641 26.6094C170.548 26.1719 169.594 25.6484 168.782 25.0391C167.985 24.4297 167.36 23.7109 166.907 22.8828C166.454 22.0391 166.227 21.0781 166.227 20C166.227 18.9375 166.454 17.9375 166.907 17C167.376 16.0625 168.04 15.2344 168.899 14.5156C169.774 13.7812 170.837 13.2109 172.087 12.8047C173.352 12.3828 174.774 12.1719 176.352 12.1719C178.555 12.1719 180.446 12.5234 182.024 13.2266C183.618 13.9297 184.837 14.8984 185.68 16.1328C186.54 17.3516 186.969 18.7422 186.969 20.3047H180.219C180.219 19.6484 180.079 19.0625 179.798 18.5469C179.532 18.0156 179.11 17.6016 178.532 17.3047C177.969 16.9922 177.235 16.8359 176.329 16.8359C175.579 16.8359 174.93 16.9688 174.383 17.2344C173.837 17.4844 173.415 17.8281 173.118 18.2656C172.837 18.6875 172.696 19.1562 172.696 19.6719C172.696 20.0625 172.774 20.4141 172.93 20.7266C173.102 21.0234 173.376 21.2969 173.751 21.5469C174.126 21.7969 174.61 22.0312 175.204 22.25C175.813 22.4531 176.563 22.6406 177.454 22.8125C179.282 23.1875 180.915 23.6797 182.352 24.2891C183.79 24.8828 184.93 25.6953 185.774 26.7266C186.618 27.7422 187.04 29.0781 187.04 30.7344C187.04 31.8594 186.79 32.8906 186.29 33.8281C185.79 34.7656 185.071 35.5859 184.133 36.2891C183.196 36.9766 182.071 37.5156 180.758 37.9062C179.462 38.2812 178.001 38.4688 176.376 38.4688C174.016 38.4688 172.016 38.0469 170.376 37.2031C168.751 36.3594 167.516 35.2891 166.673 33.9922C165.844 32.6797 165.43 31.3359 165.43 29.9609H171.829C171.86 30.8828 172.094 31.625 172.532 32.1875C172.985 32.75 173.555 33.1562 174.243 33.4062C174.946 33.6562 175.704 33.7812 176.516 33.7812C177.391 33.7812 178.118 33.6641 178.696 33.4297C179.274 33.1797 179.712 32.8516 180.008 32.4453C180.321 32.0234 180.477 31.5391 180.477 30.9922ZM212.082 32.7266V38H192.817V32.7266H212.082ZM211.707 16.5312L195.535 38H191.012V33.9922L207.113 12.6406H211.707V16.5312ZM209.317 12.6406V17.9375H191.387V12.6406H209.317Z" fill="#606C38"/>
<path d="M247.238 18.2461V33.4297C246.612 34.1237 245.647 34.8685 244.343 35.6641C243.057 36.4427 241.432 37.1113 239.468 37.6699C237.505 38.2285 235.194 38.5078 232.537 38.5078C230.082 38.5078 227.856 38.1185 225.859 37.3398C223.862 36.5443 222.144 35.3848 220.705 33.8613C219.283 32.321 218.183 30.4421 217.404 28.2246C216.642 25.9902 216.261 23.4342 216.261 20.5566V18.5C216.261 15.6224 216.651 13.0664 217.429 10.832C218.208 8.59766 219.3 6.71875 220.705 5.19531C222.127 3.65495 223.794 2.48698 225.707 1.69141C227.636 0.895833 229.752 0.498047 232.054 0.498047C235.457 0.498047 238.224 1.03971 240.357 2.12305C242.49 3.18945 244.106 4.67057 245.207 6.56641C246.307 8.44531 246.976 10.6204 247.213 13.0918H238.656C238.487 11.873 238.165 10.8405 237.691 9.99414C237.234 9.13086 236.574 8.47917 235.711 8.03906C234.847 7.58203 233.73 7.35352 232.359 7.35352C231.293 7.35352 230.319 7.58203 229.439 8.03906C228.576 8.49609 227.84 9.1901 227.23 10.1211C226.621 11.0352 226.147 12.1862 225.808 13.5742C225.487 14.9622 225.326 16.5872 225.326 18.4492V20.5566C225.326 22.4017 225.478 24.0182 225.783 25.4062C226.105 26.7943 226.578 27.9538 227.205 28.8848C227.848 29.7988 228.661 30.4928 229.642 30.9668C230.641 31.4238 231.817 31.6523 233.172 31.6523C234.119 31.6523 234.932 31.5762 235.609 31.4238C236.286 31.2546 236.845 31.0514 237.285 30.8145C237.742 30.5605 238.089 30.3236 238.326 30.1035V24.3652H232.131V18.2461H247.238ZM284.244 18.7793V20.2773C284.244 23.1042 283.847 25.6432 283.051 27.8945C282.272 30.1289 281.164 32.0417 279.725 33.6328C278.286 35.207 276.585 36.4173 274.621 37.2637C272.658 38.0931 270.491 38.5078 268.121 38.5078C265.735 38.5078 263.551 38.0931 261.57 37.2637C259.607 36.4173 257.897 35.207 256.442 33.6328C255.003 32.0417 253.886 30.1289 253.09 27.8945C252.311 25.6432 251.922 23.1042 251.922 20.2773V18.7793C251.922 15.9525 252.311 13.4134 253.09 11.1621C253.886 8.91081 254.994 6.99805 256.416 5.42383C257.855 3.83268 259.556 2.6224 261.52 1.79297C263.5 0.946615 265.684 0.523438 268.07 0.523438C270.44 0.523438 272.607 0.946615 274.57 1.79297C276.551 2.6224 278.261 3.83268 279.699 5.42383C281.138 6.99805 282.255 8.91081 283.051 11.1621C283.847 13.4134 284.244 15.9525 284.244 18.7793ZM275.205 20.2773V18.7285C275.205 16.9004 275.044 15.2923 274.723 13.9043C274.418 12.4993 273.961 11.3229 273.352 10.375C272.742 9.42708 271.989 8.71615 271.092 8.24219C270.212 7.7513 269.205 7.50586 268.07 7.50586C266.886 7.50586 265.853 7.7513 264.973 8.24219C264.093 8.71615 263.356 9.42708 262.764 10.375C262.171 11.3229 261.723 12.4993 261.418 13.9043C261.13 15.2923 260.986 16.9004 260.986 18.7285V20.2773C260.986 22.0885 261.13 23.6966 261.418 25.1016C261.723 26.4896 262.171 27.666 262.764 28.6309C263.373 29.5957 264.118 30.3236 264.998 30.8145C265.895 31.3053 266.936 31.5508 268.121 31.5508C269.255 31.5508 270.263 31.3053 271.143 30.8145C272.023 30.3236 272.759 29.5957 273.352 28.6309C273.961 27.666 274.418 26.4896 274.723 25.1016C275.044 23.6966 275.205 22.0885 275.205 20.2773Z" fill="#00BFA5"/>
</svg>
