<svg width="303" height="46" viewBox="0 0 303 46" fill="none" xmlns="http://www.w3.org/2000/svg">
<path d="M3.66119 27.648L3.51719 23.328L23.8692 2.4H27.9492L13.1172 17.952L11.1012 20.112L3.66119 27.648ZM0.589188 36V2.4H4.14119V36H0.589188ZM24.7332 36L10.2372 19.296L12.6372 16.704L28.9572 36H24.7332ZM43.5196 36.24C41.3756 36.24 39.5036 35.84 37.9036 35.04C36.3036 34.24 35.0556 33.04 34.1596 31.44C33.2956 29.84 32.8636 27.84 32.8636 25.44V10.8H36.2716V25.056C36.2716 27.744 36.9276 29.776 38.2396 31.152C39.5836 32.496 41.4556 33.168 43.8556 33.168C45.6156 33.168 47.1356 32.816 48.4156 32.112C49.7276 31.376 50.7196 30.32 51.3916 28.944C52.0956 27.568 52.4476 25.92 52.4476 24V10.8H55.8556V36H52.5916V29.088L53.1196 30.336C52.3196 32.192 51.0716 33.648 49.3756 34.704C47.7116 35.728 45.7596 36.24 43.5196 36.24ZM65.3536 36V10.8H68.6176V17.664L68.2816 16.464C68.9856 14.544 70.1696 13.088 71.8336 12.096C73.4976 11.072 75.5616 10.56 78.0256 10.56V13.872C77.8976 13.872 77.7696 13.872 77.6416 13.872C77.5136 13.84 77.3856 13.824 77.2576 13.824C74.6016 13.824 72.5216 14.64 71.0176 16.272C69.5136 17.872 68.7616 20.16 68.7616 23.136V36H65.3536ZM98.1612 36V30.432L98.0172 29.52V20.208C98.0172 18.064 97.4092 16.416 96.1932 15.264C95.0092 14.112 93.2332 13.536 90.8652 13.536C89.2332 13.536 87.6812 13.808 86.2092 14.352C84.7372 14.896 83.4892 15.616 82.4652 16.512L80.9292 13.968C82.2092 12.88 83.7452 12.048 85.5372 11.472C87.3292 10.864 89.2172 10.56 91.2012 10.56C94.4652 10.56 96.9772 11.376 98.7372 13.008C100.529 14.608 101.425 17.056 101.425 20.352V36H98.1612ZM89.4732 36.24C87.5852 36.24 85.9372 35.936 84.5292 35.328C83.1532 34.688 82.0972 33.824 81.3612 32.736C80.6252 31.616 80.2572 30.336 80.2572 28.896C80.2572 27.584 80.5612 26.4 81.1692 25.344C81.8092 24.256 82.8332 23.392 84.2412 22.752C85.6812 22.08 87.6012 21.744 90.0012 21.744H98.6892V24.288H90.0972C87.6652 24.288 85.9692 24.72 85.0092 25.584C84.0812 26.448 83.6172 27.52 83.6172 28.8C83.6172 30.24 84.1772 31.392 85.2972 32.256C86.4172 33.12 87.9852 33.552 90.0012 33.552C91.9212 33.552 93.5692 33.12 94.9452 32.256C96.3532 31.36 97.3772 30.08 98.0172 28.416L98.7852 30.768C98.1452 32.432 97.0252 33.76 95.4252 34.752C93.8572 35.744 91.8732 36.24 89.4732 36.24ZM121.146 36.24C118.65 36.24 116.41 35.696 114.426 34.608C112.474 33.488 110.938 31.968 109.818 30.048C108.698 28.096 108.138 25.872 108.138 23.376C108.138 20.848 108.698 18.624 109.818 16.704C110.938 14.784 112.474 13.28 114.426 12.192C116.41 11.104 118.65 10.56 121.146 10.56C123.29 10.56 125.226 10.976 126.954 11.808C128.682 12.64 130.042 13.888 131.034 15.552L128.49 17.28C127.626 16 126.554 15.056 125.274 14.448C123.994 13.84 122.602 13.536 121.098 13.536C119.306 13.536 117.69 13.952 116.25 14.784C114.81 15.584 113.674 16.72 112.842 18.192C112.01 19.664 111.594 21.392 111.594 23.376C111.594 25.36 112.01 27.088 112.842 28.56C113.674 30.032 114.81 31.184 116.25 32.016C117.69 32.816 119.306 33.216 121.098 33.216C122.602 33.216 123.994 32.912 125.274 32.304C126.554 31.696 127.626 30.768 128.49 29.52L131.034 31.248C130.042 32.88 128.682 34.128 126.954 34.992C125.226 35.824 123.29 36.24 121.146 36.24ZM133.985 45.552C132.961 45.552 131.985 45.408 131.057 45.12C130.097 44.864 129.297 44.464 128.657 43.92L129.857 41.328C130.881 42.192 132.193 42.624 133.793 42.624C135.137 42.624 136.161 42.224 136.865 41.424C137.601 40.624 137.969 39.44 137.969 37.872V10.8H141.377V37.872C141.377 40.208 140.737 42.064 139.457 43.44C138.209 44.848 136.385 45.552 133.985 45.552ZM139.697 5.232C138.993 5.232 138.401 4.992 137.921 4.512C137.441 4.032 137.201 3.456 137.201 2.784C137.201 2.112 137.441 1.552 137.921 1.104C138.401 0.623998 138.993 0.383998 139.697 0.383998C140.401 0.383998 140.993 0.607998 141.473 1.056C141.953 1.504 142.193 2.064 142.193 2.736C142.193 3.44 141.953 4.032 141.473 4.512C141.025 4.992 140.433 5.232 139.697 5.232ZM161.316 36.24C159.172 36.24 157.3 35.84 155.7 35.04C154.1 34.24 152.852 33.04 151.956 31.44C151.092 29.84 150.66 27.84 150.66 25.44V10.8H154.068V25.056C154.068 27.744 154.724 29.776 156.036 31.152C157.38 32.496 159.252 33.168 161.652 33.168C163.412 33.168 164.932 32.816 166.212 32.112C167.524 31.376 168.516 30.32 169.188 28.944C169.892 27.568 170.244 25.92 170.244 24V10.8H173.652V36H170.388V29.088L170.916 30.336C170.116 32.192 168.868 33.648 167.172 34.704C165.508 35.728 163.556 36.24 161.316 36.24ZM189.918 36.24C187.838 36.24 185.87 35.952 184.014 35.376C182.158 34.768 180.702 34.016 179.646 33.12L181.182 30.432C182.206 31.2 183.518 31.872 185.118 32.448C186.718 32.992 188.398 33.264 190.158 33.264C192.558 33.264 194.286 32.896 195.342 32.16C196.398 31.392 196.926 30.384 196.926 29.136C196.926 28.208 196.622 27.488 196.014 26.976C195.438 26.432 194.67 26.032 193.71 25.776C192.75 25.488 191.678 25.248 190.494 25.056C189.31 24.864 188.126 24.64 186.942 24.384C185.79 24.128 184.734 23.76 183.774 23.28C182.814 22.768 182.03 22.08 181.422 21.216C180.846 20.352 180.558 19.2 180.558 17.76C180.558 16.384 180.942 15.152 181.71 14.064C182.478 12.976 183.598 12.128 185.07 11.52C186.574 10.88 188.398 10.56 190.542 10.56C192.174 10.56 193.806 10.784 195.438 11.232C197.07 11.648 198.414 12.208 199.47 12.912L197.982 15.648C196.862 14.88 195.662 14.336 194.382 14.016C193.102 13.664 191.822 13.488 190.542 13.488C188.27 13.488 186.59 13.888 185.502 14.688C184.446 15.456 183.918 16.448 183.918 17.664C183.918 18.624 184.206 19.376 184.782 19.92C185.39 20.464 186.174 20.896 187.134 21.216C188.126 21.504 189.198 21.744 190.35 21.936C191.534 22.128 192.702 22.368 193.854 22.656C195.038 22.912 196.11 23.28 197.07 23.76C198.062 24.208 198.846 24.864 199.422 25.728C200.03 26.56 200.334 27.664 200.334 29.04C200.334 30.512 199.918 31.792 199.086 32.88C198.286 33.936 197.102 34.768 195.534 35.376C193.998 35.952 192.126 36.24 189.918 36.24ZM203.852 36V33.744L220.652 12.48L221.372 13.632H204.14V10.8H224.06V13.008L207.308 34.32L206.444 33.168H224.396V36H203.852ZM246.56 36.576C243.904 36.576 241.456 36.16 239.216 35.328C237.008 34.464 235.072 33.248 233.408 31.68C231.776 30.112 230.496 28.272 229.568 26.16C228.672 24.048 228.224 21.728 228.224 19.2C228.224 16.672 228.672 14.352 229.568 12.24C230.496 10.128 231.792 8.288 233.456 6.72C235.12 5.152 237.072 3.952 239.312 3.12C241.552 2.256 244.016 1.824 246.704 1.824C249.68 1.824 252.352 2.32 254.72 3.312C257.12 4.304 259.136 5.744 260.768 7.632L255.776 12.24C254.56 10.96 253.232 10.016 251.792 9.408C250.352 8.768 248.784 8.448 247.088 8.448C245.456 8.448 243.968 8.704 242.624 9.216C241.28 9.728 240.112 10.464 239.12 11.424C238.16 12.384 237.408 13.52 236.864 14.832C236.352 16.144 236.096 17.6 236.096 19.2C236.096 20.768 236.352 22.208 236.864 23.52C237.408 24.832 238.16 25.984 239.12 26.976C240.112 27.936 241.264 28.672 242.576 29.184C243.92 29.696 245.392 29.952 246.992 29.952C248.528 29.952 250.016 29.712 251.456 29.232C252.928 28.72 254.352 27.872 255.728 26.688L260.144 32.304C258.32 33.68 256.192 34.736 253.76 35.472C251.36 36.208 248.96 36.576 246.56 36.576ZM253.04 31.296V18.672H260.144V32.304L253.04 31.296ZM283.687 36.576C281.031 36.576 278.567 36.144 276.295 35.28C274.055 34.416 272.103 33.2 270.439 31.632C268.807 30.064 267.527 28.224 266.599 26.112C265.703 24 265.255 21.696 265.255 19.2C265.255 16.704 265.703 14.4 266.599 12.288C267.527 10.176 268.823 8.336 270.487 6.768C272.151 5.2 274.103 3.984 276.343 3.12C278.583 2.256 281.015 1.824 283.639 1.824C286.295 1.824 288.727 2.256 290.935 3.12C293.175 3.984 295.111 5.2 296.743 6.768C298.407 8.336 299.703 10.176 300.631 12.288C301.559 14.368 302.023 16.672 302.023 19.2C302.023 21.696 301.559 24.016 300.631 26.16C299.703 28.272 298.407 30.112 296.743 31.68C295.111 33.216 293.175 34.416 290.935 35.28C288.727 36.144 286.311 36.576 283.687 36.576ZM283.639 29.952C285.143 29.952 286.519 29.696 287.767 29.184C289.047 28.672 290.167 27.936 291.127 26.976C292.087 26.016 292.823 24.88 293.335 23.568C293.879 22.256 294.151 20.8 294.151 19.2C294.151 17.6 293.879 16.144 293.335 14.832C292.823 13.52 292.087 12.384 291.127 11.424C290.199 10.464 289.095 9.728 287.815 9.216C286.535 8.704 285.143 8.448 283.639 8.448C282.135 8.448 280.743 8.704 279.463 9.216C278.215 9.728 277.111 10.464 276.151 11.424C275.191 12.384 274.439 13.52 273.895 14.832C273.383 16.144 273.127 17.6 273.127 19.2C273.127 20.768 273.383 22.224 273.895 23.568C274.439 24.88 275.175 26.016 276.103 26.976C277.063 27.936 278.183 28.672 279.463 29.184C280.743 29.696 282.135 29.952 283.639 29.952Z" fill="url(#paint0_linear_11_3)"/>
<defs>
<linearGradient id="paint0_linear_11_3" x1="-7" y1="19" x2="306" y2="19" gradientUnits="userSpaceOnUse">
<stop offset="0.216" stop-color="#10AF1A"/>
<stop offset="0.656" stop-color="#FFC83B"/>
</linearGradient>
</defs>
</svg>
