<svg width="313" height="69" viewBox="0 0 313 69" fill="none" xmlns="http://www.w3.org/2000/svg">
<path d="M33.072 22.016V22.928C32.048 23.152 30.944 23.6 29.76 24.272C28.608 24.944 27.392 26.032 26.112 27.536L17.088 38.288L19.872 34.304L31.296 52.112C31.744 52.848 32.224 53.44 32.736 53.888C33.248 54.336 33.92 54.72 34.752 55.04V56C33.632 55.936 32.384 55.904 31.008 55.904C29.632 55.872 28.384 55.856 27.264 55.856C26.592 55.856 25.776 55.872 24.816 55.904C23.856 55.904 22.64 55.936 21.168 56V55.04C22.48 54.976 23.264 54.8 23.52 54.512C23.808 54.192 23.696 53.648 23.184 52.88L16.224 41.6C15.776 40.864 15.376 40.32 15.024 39.968C14.672 39.584 14.32 39.328 13.968 39.2C13.616 39.04 13.152 38.944 12.576 38.912V37.904C13.984 37.872 15.232 37.488 16.32 36.752C17.44 36.016 18.656 34.896 19.968 33.392L22.8 29.984C24.016 28.544 24.72 27.312 24.912 26.288C25.136 25.232 24.928 24.416 24.288 23.84C23.68 23.264 22.736 22.96 21.456 22.928V22.016C22.256 22.048 23.008 22.08 23.712 22.112C24.448 22.112 25.2 22.128 25.968 22.16C26.768 22.16 27.632 22.16 28.56 22.16C29.488 22.16 30.32 22.144 31.056 22.112C31.824 22.08 32.496 22.048 33.072 22.016ZM16.464 22.016V22.976C15.44 23.008 14.656 23.136 14.112 23.36C13.6 23.552 13.264 23.936 13.104 24.512C12.944 25.056 12.864 25.92 12.864 27.104V50.912C12.864 52.064 12.944 52.928 13.104 53.504C13.296 54.08 13.648 54.464 14.16 54.656C14.672 54.848 15.44 54.976 16.464 55.04V56C15.6 55.936 14.512 55.904 13.2 55.904C11.888 55.872 10.56 55.856 9.216 55.856C7.68 55.856 6.224 55.872 4.848 55.904C3.504 55.904 2.432 55.936 1.632 56V55.04C2.656 54.976 3.424 54.848 3.936 54.656C4.448 54.464 4.784 54.08 4.944 53.504C5.136 52.928 5.232 52.064 5.232 50.912V27.104C5.232 25.92 5.136 25.056 4.944 24.512C4.784 23.936 4.432 23.552 3.888 23.36C3.376 23.136 2.624 23.008 1.632 22.976V22.016C2.432 22.048 3.504 22.08 4.848 22.112C6.224 22.144 7.68 22.16 9.216 22.16C10.56 22.16 11.888 22.144 13.2 22.112C14.512 22.08 15.6 22.048 16.464 22.016ZM58.8529 30.656V50.768C58.8529 52.208 59.0769 53.28 59.5249 53.984C59.9729 54.656 60.7729 54.992 61.9249 54.992V56C60.9329 55.904 59.9409 55.856 58.9489 55.856C57.6049 55.856 56.3569 55.904 55.2049 56C54.0529 56.096 52.9649 56.272 51.9409 56.528V52.208C51.1729 53.808 50.1009 54.96 48.7249 55.664C47.3809 56.336 45.8769 56.672 44.2129 56.672C42.8689 56.672 41.7809 56.496 40.9489 56.144C40.1169 55.792 39.4609 55.344 38.9809 54.8C38.4369 54.192 38.0529 53.392 37.8289 52.4C37.6049 51.408 37.4929 50.128 37.4929 48.56V36.416C37.4929 34.976 37.2689 33.92 36.8209 33.248C36.4049 32.544 35.6049 32.192 34.4209 32.192V31.184C35.4449 31.28 36.4369 31.328 37.3969 31.328C38.7409 31.328 39.9889 31.28 41.1409 31.184C42.3249 31.056 43.4129 30.88 44.4049 30.656V50.528C44.4049 51.328 44.4689 52.032 44.5969 52.64C44.7569 53.248 45.0449 53.728 45.4609 54.08C45.8769 54.4 46.4849 54.56 47.2849 54.56C48.1489 54.56 48.9169 54.32 49.5889 53.84C50.2929 53.36 50.8529 52.704 51.2689 51.872C51.7169 51.008 51.9409 50.048 51.9409 48.992V36.416C51.9409 34.976 51.7169 33.92 51.2689 33.248C50.8529 32.544 50.0529 32.192 48.8689 32.192V31.184C49.8929 31.28 50.8849 31.328 51.8449 31.328C53.1889 31.328 54.4369 31.28 55.5889 31.184C56.7729 31.056 57.8609 30.88 58.8529 30.656ZM80.5703 30.512C81.5943 30.512 82.4263 30.736 83.0663 31.184C83.7063 31.6 84.1703 32.144 84.4583 32.816C84.7783 33.488 84.9383 34.192 84.9383 34.928C84.9383 36.112 84.5863 37.088 83.8823 37.856C83.2103 38.592 82.3143 38.96 81.1943 38.96C80.0743 38.96 79.1943 38.688 78.5543 38.144C77.9463 37.568 77.6423 36.816 77.6423 35.888C77.6423 34.992 77.8343 34.256 78.2183 33.68C78.6343 33.072 79.1463 32.56 79.7543 32.144C79.3063 32.016 78.8583 32.032 78.4103 32.192C77.8023 32.288 77.2263 32.544 76.6823 32.96C76.1383 33.344 75.6743 33.84 75.2903 34.448C74.9063 35.024 74.6023 35.664 74.3783 36.368C74.1543 37.04 74.0423 37.696 74.0423 38.336V51.056C74.0423 52.592 74.4103 53.632 75.1463 54.176C75.9143 54.72 77.0503 54.992 78.5543 54.992V56C77.8183 55.968 76.7463 55.936 75.3383 55.904C73.9303 55.84 72.4583 55.808 70.9223 55.808C69.6423 55.808 68.3463 55.84 67.0343 55.904C65.7223 55.936 64.7303 55.968 64.0583 56V54.992C65.1783 54.992 65.9623 54.752 66.4103 54.272C66.8903 53.792 67.1303 52.88 67.1303 51.536V36.416C67.1303 34.976 66.9063 33.92 66.4583 33.248C66.0423 32.544 65.2423 32.192 64.0583 32.192V31.184C65.0823 31.28 66.0743 31.328 67.0343 31.328C68.3783 31.328 69.6263 31.28 70.7783 31.184C71.9623 31.056 73.0503 30.88 74.0423 30.656V35.12C74.4263 34.256 74.9383 33.472 75.5782 32.768C76.2183 32.064 76.9543 31.52 77.7863 31.136C78.6183 30.72 79.5463 30.512 80.5703 30.512ZM93.0885 56.336C91.6485 56.336 90.4485 56.064 89.4885 55.52C88.5285 54.976 87.8245 54.256 87.3765 53.36C86.9285 52.432 86.7045 51.424 86.7045 50.336C86.7045 48.96 87.0085 47.84 87.6165 46.976C88.2565 46.112 89.0725 45.408 90.0645 44.864C91.0565 44.32 92.0965 43.872 93.1845 43.52C94.3045 43.168 95.3605 42.832 96.3525 42.512C97.3765 42.16 98.1925 41.76 98.8005 41.312C99.4405 40.832 99.7605 40.224 99.7605 39.488V35.744C99.7605 34.912 99.6165 34.176 99.3285 33.536C99.0725 32.864 98.6565 32.352 98.0805 32C97.5365 31.648 96.8165 31.472 95.9205 31.472C95.2805 31.472 94.6405 31.568 94.0005 31.76C93.3605 31.92 92.8325 32.208 92.4165 32.624C93.3125 32.944 94.0005 33.44 94.4805 34.112C94.9925 34.752 95.2485 35.488 95.2485 36.32C95.2485 37.408 94.8645 38.272 94.0965 38.912C93.3605 39.552 92.4805 39.872 91.4565 39.872C90.3045 39.872 89.4245 39.52 88.8165 38.816C88.2405 38.08 87.9525 37.2 87.9525 36.176C87.9525 35.248 88.1765 34.48 88.6245 33.872C89.1045 33.264 89.7605 32.688 90.5925 32.144C91.4885 31.632 92.5605 31.232 93.8085 30.944C95.0885 30.656 96.4645 30.512 97.9365 30.512C99.4085 30.512 100.737 30.672 101.921 30.992C103.105 31.28 104.097 31.824 104.897 32.624C105.633 33.36 106.113 34.272 106.337 35.36C106.561 36.416 106.673 37.76 106.673 39.392V52.448C106.673 53.248 106.753 53.808 106.913 54.128C107.073 54.416 107.345 54.56 107.729 54.56C108.017 54.56 108.289 54.48 108.545 54.32C108.833 54.16 109.137 53.968 109.457 53.744L109.937 54.56C109.265 55.136 108.481 55.584 107.585 55.904C106.721 56.192 105.745 56.336 104.657 56.336C103.473 56.336 102.529 56.176 101.825 55.856C101.121 55.504 100.609 55.04 100.289 54.464C100.001 53.888 99.8565 53.216 99.8565 52.448C99.0885 53.664 98.1605 54.624 97.0725 55.328C95.9845 56 94.6565 56.336 93.0885 56.336ZM96.4965 53.264C97.1365 53.264 97.7125 53.12 98.2245 52.832C98.7685 52.512 99.2805 52 99.7605 51.296V41.456C99.4725 41.936 99.0725 42.368 98.5605 42.752C98.0485 43.136 97.5045 43.536 96.9285 43.952C96.3525 44.336 95.7925 44.768 95.2485 45.248C94.7365 45.728 94.3205 46.32 94.0005 47.024C93.6805 47.728 93.5205 48.576 93.5205 49.568C93.5205 50.816 93.7925 51.744 94.3365 52.352C94.8805 52.96 95.6005 53.264 96.4965 53.264ZM123.788 30.512C125.036 30.512 126.172 30.656 127.196 30.944C128.252 31.2 129.116 31.536 129.788 31.952C130.62 32.464 131.26 33.104 131.708 33.872C132.188 34.608 132.428 35.472 132.428 36.464C132.428 37.584 132.076 38.512 131.372 39.248C130.668 39.952 129.756 40.304 128.636 40.304C127.516 40.304 126.62 39.984 125.948 39.344C125.276 38.704 124.94 37.84 124.94 36.752C124.94 35.728 125.26 34.88 125.9 34.208C126.54 33.504 127.276 33.04 128.108 32.816C127.852 32.496 127.468 32.224 126.956 32C126.444 31.776 125.868 31.664 125.228 31.664C124.236 31.664 123.356 31.952 122.588 32.528C121.852 33.104 121.228 33.904 120.716 34.928C120.204 35.952 119.804 37.152 119.516 38.528C119.26 39.904 119.132 41.408 119.132 43.04C119.132 45.504 119.436 47.44 120.044 48.848C120.684 50.256 121.484 51.248 122.444 51.824C123.436 52.4 124.46 52.688 125.516 52.688C126.124 52.688 126.78 52.592 127.484 52.4C128.22 52.208 128.956 51.824 129.692 51.248C130.46 50.672 131.164 49.856 131.804 48.8L132.62 49.088C132.268 50.272 131.692 51.456 130.892 52.64C130.092 53.824 129.052 54.8 127.772 55.568C126.492 56.304 124.924 56.672 123.068 56.672C120.988 56.672 119.1 56.224 117.404 55.328C115.74 54.4 114.396 52.992 113.372 51.104C112.38 49.184 111.884 46.72 111.884 43.712C111.884 40.832 112.396 38.416 113.42 36.464C114.476 34.48 115.9 32.992 117.692 32C119.484 31.008 121.516 30.512 123.788 30.512ZM136.005 65.024V64.16C137.573 64.128 138.821 63.504 139.749 62.288C140.677 61.104 141.141 59.296 141.141 56.864V36.416C141.141 34.976 140.917 33.92 140.469 33.248C140.021 32.544 139.221 32.192 138.069 32.192V31.184C139.093 31.28 140.085 31.328 141.045 31.328C142.357 31.328 143.605 31.28 144.789 31.184C145.973 31.056 147.061 30.88 148.053 30.656V51.488C148.053 53.248 147.941 54.8 147.717 56.144C147.493 57.488 147.125 58.672 146.613 59.696C146.101 60.72 145.429 61.632 144.597 62.432C143.797 63.2 142.693 63.824 141.285 64.304C139.909 64.784 138.149 65.024 136.005 65.024ZM144.069 18.8C145.413 18.8 146.469 19.136 147.237 19.808C148.037 20.448 148.437 21.344 148.437 22.496C148.437 23.648 148.037 24.56 147.237 25.232C146.469 25.872 145.413 26.192 144.069 26.192C142.725 26.192 141.653 25.872 140.853 25.232C140.085 24.56 139.701 23.648 139.701 22.496C139.701 21.344 140.085 20.448 140.853 19.808C141.653 19.136 142.725 18.8 144.069 18.8ZM176.415 30.656V50.768C176.415 52.208 176.639 53.28 177.087 53.984C177.535 54.656 178.335 54.992 179.487 54.992V56C178.495 55.904 177.503 55.856 176.511 55.856C175.167 55.856 173.919 55.904 172.767 56C171.615 56.096 170.527 56.272 169.503 56.528V52.208C168.735 53.808 167.663 54.96 166.287 55.664C164.943 56.336 163.439 56.672 161.775 56.672C160.431 56.672 159.343 56.496 158.511 56.144C157.679 55.792 157.023 55.344 156.543 54.8C155.999 54.192 155.615 53.392 155.391 52.4C155.167 51.408 155.055 50.128 155.055 48.56V36.416C155.055 34.976 154.831 33.92 154.383 33.248C153.967 32.544 153.167 32.192 151.983 32.192V31.184C153.007 31.28 153.999 31.328 154.959 31.328C156.303 31.328 157.551 31.28 158.703 31.184C159.887 31.056 160.975 30.88 161.967 30.656V50.528C161.967 51.328 162.031 52.032 162.159 52.64C162.319 53.248 162.607 53.728 163.023 54.08C163.439 54.4 164.047 54.56 164.847 54.56C165.711 54.56 166.479 54.32 167.151 53.84C167.855 53.36 168.415 52.704 168.831 51.872C169.279 51.008 169.503 50.048 169.503 48.992V36.416C169.503 34.976 169.279 33.92 168.831 33.248C168.415 32.544 167.615 32.192 166.431 32.192V31.184C167.455 31.28 168.447 31.328 169.407 31.328C170.751 31.328 171.999 31.28 173.151 31.184C174.335 31.056 175.423 30.88 176.415 30.656ZM191.125 30.512C192.469 30.512 193.637 30.688 194.629 31.04C195.653 31.36 196.389 31.68 196.837 32C197.925 32.736 198.597 32.256 198.853 30.56H199.861C199.797 31.456 199.749 32.56 199.717 33.872C199.685 35.152 199.669 36.864 199.669 39.008H198.661C198.501 37.824 198.197 36.656 197.749 35.504C197.301 34.352 196.645 33.408 195.781 32.672C194.949 31.936 193.861 31.568 192.517 31.568C191.589 31.568 190.805 31.84 190.165 32.384C189.525 32.896 189.205 33.648 189.205 34.64C189.205 35.6 189.493 36.448 190.069 37.184C190.645 37.888 191.381 38.576 192.277 39.248C193.205 39.888 194.165 40.576 195.157 41.312C196.213 42.112 197.173 42.912 198.037 43.712C198.901 44.48 199.589 45.328 200.101 46.256C200.613 47.184 200.869 48.288 200.869 49.568C200.869 51.008 200.453 52.272 199.621 53.36C198.789 54.416 197.685 55.232 196.309 55.808C194.965 56.384 193.461 56.672 191.797 56.672C190.837 56.672 189.973 56.576 189.205 56.384C188.469 56.192 187.829 55.952 187.285 55.664C186.869 55.472 186.469 55.296 186.085 55.136C185.733 54.944 185.397 54.784 185.077 54.656C184.757 54.56 184.469 54.672 184.213 54.992C183.989 55.312 183.813 55.76 183.685 56.336H182.677C182.741 55.312 182.789 54.064 182.821 52.592C182.853 51.12 182.869 49.168 182.869 46.736H183.877C184.069 48.464 184.421 50 184.933 51.344C185.445 52.656 186.133 53.696 186.997 54.464C187.893 55.2 189.013 55.568 190.357 55.568C190.901 55.568 191.429 55.456 191.941 55.232C192.453 55.008 192.869 54.64 193.189 54.128C193.541 53.616 193.717 52.96 193.717 52.16C193.717 50.752 193.253 49.584 192.325 48.656C191.429 47.728 190.277 46.72 188.869 45.632C187.845 44.8 186.869 43.984 185.941 43.184C185.045 42.352 184.309 41.456 183.733 40.496C183.157 39.504 182.869 38.384 182.869 37.136C182.869 35.696 183.253 34.48 184.021 33.488C184.789 32.496 185.797 31.76 187.045 31.28C188.325 30.768 189.685 30.512 191.125 30.512ZM223.953 30.944L211.953 55.28H214.449C215.697 55.28 216.865 55.024 217.953 54.512C219.073 53.968 220.001 53.072 220.737 51.824C221.505 50.576 221.969 48.864 222.129 46.688H223.137C223.137 49.024 223.153 50.944 223.185 52.448C223.217 53.92 223.265 55.168 223.329 56.192C221.889 56.128 220.385 56.08 218.817 56.048C217.249 56.016 215.681 56 214.113 56C212.481 56 210.801 56.016 209.073 56.048C207.345 56.112 205.697 56.176 204.129 56.24L216.129 31.904H213.441C212.161 31.904 210.977 32.176 209.889 32.72C208.833 33.232 207.953 34.128 207.249 35.408C206.577 36.656 206.145 38.352 205.953 40.496H204.945C204.945 38.128 204.929 36.208 204.897 34.736C204.865 33.264 204.817 32.016 204.753 30.992C206.225 31.056 207.745 31.104 209.313 31.136C210.881 31.168 212.433 31.184 213.969 31.184C215.633 31.184 217.313 31.168 219.009 31.136C220.737 31.072 222.385 31.008 223.953 30.944Z" fill="#606C38"/>
<path d="M247.423 18.456C249.85 18.456 251.843 18.7853 253.403 19.444C254.963 20.1027 256.332 20.9 257.511 21.836C257.892 22.148 258.239 22.304 258.551 22.304C259.21 22.304 259.643 21.264 259.851 19.184H261.047C260.978 20.5707 260.926 22.2693 260.891 24.28C260.856 26.256 260.839 28.8907 260.839 32.184H259.643C259.4 29.688 258.967 27.608 258.343 25.944C257.754 24.2453 256.592 22.8067 254.859 21.628C254.131 21.1427 253.282 20.7613 252.311 20.484C251.34 20.2067 250.404 20.068 249.503 20.068C247.492 20.068 245.828 20.6227 244.511 21.732C243.194 22.8067 242.136 24.228 241.339 25.996C240.576 27.7293 240.022 29.636 239.675 31.716C239.363 33.7613 239.207 35.7547 239.207 37.696C239.207 43.936 239.97 48.4947 241.495 51.372C243.02 54.2493 245.048 55.688 247.579 55.688C248.134 55.688 248.619 55.636 249.035 55.532C249.451 55.428 249.815 55.272 250.127 55.064C250.508 54.7867 250.786 54.44 250.959 54.024C251.132 53.608 251.219 53.088 251.219 52.464V47.264C251.219 45.5653 251.08 44.3 250.803 43.468C250.56 42.636 250.058 42.064 249.295 41.752C248.532 41.44 247.423 41.2667 245.967 41.232V40.192C246.764 40.2267 247.735 40.2613 248.879 40.296C250.023 40.296 251.219 40.3133 252.467 40.348C253.715 40.348 254.859 40.348 255.899 40.348C257.563 40.348 259.088 40.3307 260.475 40.296C261.896 40.2613 263.04 40.2267 263.907 40.192V41.232C263.318 41.2667 262.867 41.388 262.555 41.596C262.243 41.804 262.035 42.22 261.931 42.844C261.827 43.468 261.775 44.4213 261.775 45.704V56H260.735C260.7 55.4107 260.562 54.7693 260.319 54.076C260.076 53.3827 259.678 53.036 259.123 53.036C258.846 53.036 258.447 53.1053 257.927 53.244C257.442 53.3827 256.662 53.712 255.587 54.232C254.235 54.8907 252.796 55.48 251.271 56C249.78 56.4853 248.29 56.728 246.799 56.728C242.466 56.728 238.843 55.9827 235.931 54.492C233.019 53.0013 230.835 50.852 229.379 48.044C227.958 45.236 227.247 41.856 227.247 37.904C227.247 34.0213 228.096 30.624 229.795 27.712C231.528 24.8 233.903 22.5293 236.919 20.9C239.97 19.2707 243.471 18.456 247.423 18.456ZM286.208 18.456C290.125 18.456 293.557 19.2013 296.504 20.692C299.45 22.1827 301.738 24.332 303.368 27.14C304.997 29.9133 305.812 33.2933 305.812 37.28C305.812 41.1627 304.98 44.56 303.316 47.472C301.652 50.384 299.329 52.6547 296.348 54.284C293.401 55.9133 290.004 56.728 286.156 56.728C282.238 56.728 278.806 55.9827 275.86 54.492C272.913 53.0013 270.625 50.852 268.996 48.044C267.366 45.236 266.552 41.856 266.552 37.904C266.552 34.0213 267.384 30.624 269.048 27.712C270.746 24.8 273.069 22.5293 276.016 20.9C278.962 19.2707 282.36 18.456 286.208 18.456ZM286 19.392C284.266 19.392 282.758 20.172 281.476 21.732C280.193 23.292 279.205 25.4413 278.512 28.18C277.818 30.9187 277.472 34.0907 277.472 37.696C277.472 41.3707 277.87 44.5773 278.668 47.316C279.465 50.02 280.54 52.1173 281.892 53.608C283.244 55.064 284.734 55.792 286.364 55.792C288.097 55.792 289.605 55.012 290.888 53.452C292.17 51.892 293.158 49.7427 293.852 47.004C294.545 44.2307 294.892 41.0587 294.892 37.488C294.892 33.7787 294.493 30.572 293.696 27.868C292.898 25.164 291.824 23.084 290.472 21.628C289.12 20.1373 287.629 19.392 286 19.392Z" fill="#DDA15E"/>
</svg>
